<?xml version="1.0" encoding="utf-8"?>
<!-- Generator: Adobe Illustrator 21.0.0, SVG Export Plug-In . SVG Version: 6.00 Build 0)  -->
<svg version="1.1" id="Calque_1" xmlns="http://www.w3.org/2000/svg" xmlns:xlink="http://www.w3.org/1999/xlink" x="0px" y="0px"
	 viewBox="0 0 243.5 148.2" style="enable-background:new 0 0 243.5 148.2;" xml:space="preserve">
<style type="text/css">
	.st0{fill:none;stroke:#6BB3B3;stroke-width:6;stroke-linecap:round;stroke-linejoin:round;stroke-miterlimit:10;}
	.st1{fill:#FFFFFF;}
	.st2{fill:#6BB3B3;}
	.st3{fill:#6B7DB3;}
</style>
<g>
	<polyline class="st0" points="197.2,106.6 226.6,112.2 117.5,139.1 16.3,111.7 42.8,106.4 	"/>
	<polygon class="st1" points="214.5,99.5 200.4,103 191.6,105.1 173.9,101.5 195.2,95.8 	"/>
	<polygon class="st1" points="130.9,120.1 117.2,123.5 104,119.9 117.2,116.4 	"/>
	<polygon class="st1" points="182.3,107.4 142.3,117.3 127.8,113.6 165.3,103.7 	"/>
	<polygon class="st1" points="184.4,93.8 163,99.2 134.4,93.2 135.2,93.1 155.9,88.4 174.4,91.9 	"/>
	<polygon class="st1" points="146.5,86.6 125.6,91.1 96.3,85.2 117.2,81.1 136.6,84.8 	"/>
	<polygon class="st1" points="118,93.5 89.3,99.4 61,92.3 61.3,92.2 61.3,92.2 81.1,88.3 87.7,87 114.9,92.9 	"/>
	<g>
		<path class="st2" d="M117.2,81.1l19.5,3.7l9.9,1.9l12.6-2.7L149,82l-31.3-5.9c-0.3-0.1-0.6-0.1-1,0l-33.1,6.6l12.7,2.6L117.2,81.1
			z"/>
		<polygon class="st2" points="155.9,88.4 174.4,91.9 184.4,93.8 195.9,90.9 186.2,89.1 168.3,85.7 		"/>
		<polygon class="st2" points="61.3,92.2 61.3,92.2 81.1,88.3 87.7,87 75.4,84.3 69,85.6 49.8,89.4 49.6,89.5 61,92.3 		"/>
		<path class="st2" d="M226.7,96.7l-20.2-3.8l-11.2,3l19.3,3.6l-14.1,3.5l-8.8,2.2l11.3,2.3l9-2.2l14.9-3.7c1.2-0.3,1.9-1.3,1.9-2.5
			C228.7,97.9,227.8,96.9,226.7,96.7z"/>
		<path class="st2" d="M82.9,119.4l9.9-2.5l-9.7-2.6L26.9,99.1L51,94.3l-11-2.9l-24.6,4.9c-1.1,0.2-2,1.2-2,2.4
			c0,1.2,0.7,2.2,1.9,2.5l57.9,15.7L82.9,119.4z"/>
		<polygon class="st2" points="142.3,117.3 152.6,119.9 193.4,109.8 182.3,107.4 		"/>
		<path class="st2" d="M117.2,123.5l-13.2-3.6l-9.7,2.6l22.2,6c0.2,0.1,0.4,0.1,0.7,0.1c0.2,0,0.4,0,0.6-0.1l23.2-5.7l-10.1-2.7
			L117.2,123.5z"/>
	</g>
	<polygon class="st1" points="154.3,101.4 116.7,110.9 88,103.6 125.7,95.2 	"/>
	<g>
		<polygon class="st2" points="117.2,123.5 79.4,113.3 72.6,114.9 76.5,117.7 110.2,126.8 		"/>
		<polygon class="st2" points="129.9,125.5 208.2,106.2 198.8,103.4 148.8,115.7 122.7,122.1 		"/>
		<polygon class="st2" points="211.3,93.8 122.7,77 120.5,80.1 146.5,86.6 204.2,97.5 		"/>
		<polygon class="st2" points="112.9,81.9 39.1,96.7 26.9,93.8 100.6,79.3 		"/>
	</g>
	<g>
		<path class="st3" d="M117.8,29.6c7.3,0,13.1,5.9,13.1,13.1s-5.9,13.1-13.1,13.1s-13.1-5.9-13.1-13.1S110.5,29.6,117.8,29.6
			 M117.8,22.6c-11.1,0-20.1,9-20.1,20.1s9,20.1,20.1,20.1s20.1-9,20.1-20.1S128.9,22.6,117.8,22.6L117.8,22.6z"/>
	</g>
	<g>
		<path class="st1" d="M118.1,99.3c-5.8-2.5-31.3-15.7-32.9-52.2c0-0.1,0-0.1,0-0.2c-0.1-1.2-0.2-2.3-0.2-3.5c0-18.2,14.8-33,33-33
			s33,14.8,33,33C151,84.1,123.9,97,118.1,99.3z M117.8,26.1c-9.2,0-16.6,7.5-16.6,16.6s7.5,16.6,16.6,16.6s16.6-7.5,16.6-16.6
			S127,26.1,117.8,26.1z"/>
		<path class="st2" d="M118,13.8c16.3,0,29.5,13.3,29.5,29.5c0,36.2-22.1,48.9-29.4,52.1C111.2,92,90.1,79,88.6,46.9
			c0-0.1,0-0.3,0-0.4c-0.1-1-0.2-2.1-0.2-3.1C88.4,27.1,101.7,13.8,118,13.8 M117.8,62.9c11.1,0,20.1-9,20.1-20.1s-9-20.1-20.1-20.1
			s-20.1,9-20.1,20.1S106.7,62.9,117.8,62.9 M118,6.8c-20.2,0-36.5,16.4-36.5,36.5c0,1.3,0.1,2.6,0.2,3.8C83.6,90.6,118,103,118,103
			s36.5-11.1,36.5-59.6C154.5,23.2,138.2,6.8,118,6.8L118,6.8z M117.8,55.9c-7.3,0-13.1-5.9-13.1-13.1c0-7.3,5.9-13.1,13.1-13.1
			c7.3,0,13.1,5.9,13.1,13.1C130.9,50,125.1,55.9,117.8,55.9L117.8,55.9z"/>
	</g>
	<g>
		<polygon class="st1" points="66.1,104.2 68.7,103.6 68.7,103.6 72.1,102.9 73.7,102.6 73.7,102.6 73.7,102.6 78.8,101.5 51,94.3 
			26.9,99.1 54.6,106.6 		"/>
		<polygon class="st1" points="75.1,105.3 61.3,108.4 83.1,114.3 92.8,116.9 106.1,113.5 		"/>
	</g>
</g>
</svg>
