<?xml version="1.0" encoding="utf-8"?>
<!-- Generator: Adobe Illustrator 21.0.0, SVG Export Plug-In . SVG Version: 6.00 Build 0)  -->
<svg version="1.1" id="Calque_1" xmlns="http://www.w3.org/2000/svg" xmlns:xlink="http://www.w3.org/1999/xlink" x="0px" y="0px"
	 viewBox="0 0 243.5 214" style="enable-background:new 0 0 243.5 214;" xml:space="preserve">
	 
<style type="text/css">
	@import url('https://fonts.googleapis.com/css?family=Karla|Playfair+Display&display=swap');
	.st0{fill:none;}
	.st1{fill:#FFFFFF;}
	.st2{font-family:'Arial';}
	.st3{font-size:70px;}
	.st4{fill:none;stroke:#6BB3B3;stroke-width:6;stroke-linecap:round;stroke-linejoin:round;stroke-miterlimit:10;}
	.st5{fill:#6BB3B3;}
	.st6{fill:#6B7DB3;}
</style>

<rect x="-17.4" y="129.3" class="st0" width="280.3" height="68.2"/>
<text transform="matrix(1 0 0 1 3.4171 186.2672)" class="st1 st2 st3">Maptee</text>
<polyline class="st4" points="197.2,112.3 226.6,117.9 117.5,144.8 16.3,117.4 42.8,112.1 "/>
<polygon class="st1" points="214.5,105.2 200.4,108.6 191.6,110.8 173.9,107.2 195.2,101.5 "/>
<polygon class="st1" points="130.9,125.8 117.2,129.2 104,125.6 117.2,122.1 "/>
<polygon class="st1" points="182.3,113.1 142.3,123 127.8,119.3 165.3,109.4 "/>
<polygon class="st1" points="184.4,99.5 163,104.9 134.4,98.9 135.2,98.8 155.9,94.1 174.4,97.6 "/>
<polygon class="st1" points="146.5,92.3 125.6,96.8 96.3,90.9 117.2,86.8 136.6,90.5 "/>
<polygon class="st1" points="118,99.2 89.3,105.1 61,98 61.3,97.9 61.3,97.9 81.1,94 87.7,92.7 114.9,98.5 "/>
<g>
	<path class="st5" d="M117.2,86.8l19.5,3.7l9.9,1.9l12.6-2.7L149,87.7l-31.3-5.9c-0.3-0.1-0.6-0.1-1,0l-33.1,6.6l12.7,2.6
		L117.2,86.8z"/>
	<polygon class="st5" points="155.9,94.1 174.4,97.6 184.4,99.5 195.9,96.6 186.2,94.7 168.3,91.3 	"/>
	<polygon class="st5" points="61.3,97.9 61.3,97.9 81.1,94 87.7,92.7 75.4,90 69,91.3 49.8,95.1 49.6,95.1 61,98 	"/>
	<path class="st5" d="M226.7,102.4l-20.2-3.8l-11.2,3l19.3,3.6l-14.1,3.5l-8.8,2.2l11.3,2.3l9-2.2l14.9-3.7c1.2-0.3,1.9-1.3,1.9-2.5
		C228.7,103.6,227.8,102.6,226.7,102.4z"/>
	<path class="st5" d="M82.9,125.1l9.9-2.5l-9.7-2.6l-56.3-15.2L51,100l-11-2.9L15.4,102c-1.1,0.2-2,1.2-2,2.4c0,1.2,0.7,2.2,1.9,2.5
		l57.9,15.7L82.9,125.1z"/>
	<polygon class="st5" points="142.3,123 152.6,125.6 193.4,115.5 182.3,113.1 	"/>
	<path class="st5" d="M117.2,129.2l-13.2-3.6l-9.7,2.6l22.2,6c0.2,0.1,0.4,0.1,0.7,0.1c0.2,0,0.4,0,0.6-0.1l23.2-5.7l-10.1-2.7
		L117.2,129.2z"/>
</g>
<polygon class="st1" points="154.3,107.1 116.7,116.5 88,109.3 125.7,100.9 "/>
<g>
	<polygon class="st5" points="117.2,129.2 79.4,119 72.6,120.6 76.5,123.3 110.2,132.5 	"/>
	<polygon class="st5" points="129.9,131.2 208.2,111.9 198.8,109.1 148.8,121.4 122.7,127.8 	"/>
	<polygon class="st5" points="211.3,99.5 122.7,82.7 120.5,85.7 146.5,92.3 204.2,103.2 	"/>
	<polygon class="st5" points="112.9,87.6 39.1,102.3 26.9,99.5 100.6,85 	"/>
</g>
<g>
	<path class="st6" d="M117.8,35.3c7.3,0,13.1,5.9,13.1,13.1s-5.9,13.1-13.1,13.1s-13.1-5.9-13.1-13.1S110.5,35.3,117.8,35.3
		 M117.8,28.3c-11.1,0-20.1,9-20.1,20.1s9,20.1,20.1,20.1s20.1-9,20.1-20.1S128.9,28.3,117.8,28.3L117.8,28.3z"/>
</g>
<g>
	<path class="st1" d="M118.1,105c-5.8-2.5-31.3-15.7-32.9-52.2c0-0.1,0-0.1,0-0.2c-0.1-1.2-0.2-2.3-0.2-3.5c0-18.2,14.8-33,33-33
		s33,14.8,33,33C151,89.8,123.9,102.7,118.1,105z M117.8,31.8c-9.2,0-16.6,7.5-16.6,16.6s7.5,16.6,16.6,16.6s16.6-7.5,16.6-16.6
		S127,31.8,117.8,31.8z"/>
	<path class="st5" d="M118,19.5c16.3,0,29.5,13.3,29.5,29.5c0,36.2-22.1,48.9-29.3,52.1c-2.8-1.4-8-4.4-13.2-9.5
		c-10.1-10-15.6-23.1-16.3-39c0-0.1,0-0.3,0-0.4c-0.1-1-0.2-2.1-0.2-3.1C88.4,32.8,101.7,19.5,118,19.5 M117.8,68.6
		c11.1,0,20.1-9,20.1-20.1s-9-20.1-20.1-20.1s-20.1,9-20.1,20.1S106.7,68.6,117.8,68.6 M118,12.5c-20.2,0-36.5,16.4-36.5,36.5
		c0,1.3,0.1,2.6,0.2,3.8c1.9,43.4,36.3,55.8,36.3,55.8s36.5-11.1,36.5-59.6C154.5,28.9,138.2,12.5,118,12.5L118,12.5z M117.8,61.6
		c-7.3,0-13.1-5.9-13.1-13.1c0-7.3,5.9-13.1,13.1-13.1c7.3,0,13.1,5.9,13.1,13.1C130.9,55.7,125.1,61.6,117.8,61.6L117.8,61.6z"/>
</g>
<g>
	<polygon class="st1" points="66.1,109.8 68.7,109.3 68.7,109.3 72.1,108.6 73.7,108.3 73.7,108.2 73.7,108.2 78.8,107.2 51,100 
		26.9,104.8 54.6,112.3 	"/>
	<polygon class="st1" points="75.1,111 61.3,114.1 83.1,120 92.8,122.6 106.1,119.2 	"/>
</g>
</svg>
