<?xml version="1.0" encoding="utf-8"?>
<!-- Generator: Adobe Illustrator 21.0.0, SVG Export Plug-In . SVG Version: 6.00 Build 0)  -->
<svg version="1.1" id="Calque_1" xmlns="http://www.w3.org/2000/svg" xmlns:xlink="http://www.w3.org/1999/xlink" x="0px" y="0px"
	 viewBox="0 0 79.4 100.2" style="enable-background:new 0 0 79.4 100.2;" xml:space="preserve">
<style type="text/css">
	.st0{fill:#005cc3;}
	.st1{fill:#e5b900;}
</style>
<g>
	<path class="st0" d="M38.4,24.4c7.3,0,13.1,5.9,13.1,13.1s-5.9,13.1-13.1,13.1s-13.1-5.9-13.1-13.1S31.2,24.4,38.4,24.4 M38.4,17.4
		c-11.1,0-20.1,9-20.1,20.1s9,20.1,20.1,20.1s20.1-9,20.1-20.1S49.5,17.4,38.4,17.4L38.4,17.4z"/>
</g>
<g>
	<g>
		<path class="st1" d="M38.7,94.1C32.9,91.6,7.4,78.4,5.8,41.9c0-0.1,0-0.1,0-0.2c-0.1-1.2-0.2-2.3-0.2-3.5c0-18.2,14.8-33,33-33
			s33,14.8,33,33C71.7,78.9,44.5,91.8,38.7,94.1z M38.4,20.9c-9.2,0-16.6,7.5-16.6,16.6s7.5,16.6,16.6,16.6s16.6-7.5,16.6-16.6
			S47.6,20.9,38.4,20.9z"/>
	</g>
	<g>
		<path class="st0" d="M38.6,8.6c16.3,0,29.5,13.3,29.5,29.5c0,36.2-22.1,48.9-29.4,52.1c-6.9-3.4-28.1-16.5-29.5-48.5
			c0-0.1,0-0.3,0-0.4c-0.1-1-0.2-2.1-0.2-3.1C9.1,21.9,22.3,8.6,38.6,8.6 M38.4,57.7c11.1,0,20.1-9,20.1-20.1s-9-20.1-20.1-20.1
			s-20.1,9-20.1,20.1S27.3,57.7,38.4,57.7 M38.6,1.6C18.4,1.6,2.1,18,2.1,38.2c0,1.3,0.1,2.6,0.2,3.8c1.9,43.4,36.3,55.8,36.3,55.8
			s36.5-11.1,36.5-59.6C75.2,18,58.8,1.6,38.6,1.6L38.6,1.6z M38.4,50.7c-7.3,0-13.1-5.9-13.1-13.1c0-7.3,5.9-13.1,13.1-13.1
			c7.3,0,13.1,5.9,13.1,13.1C51.6,44.8,45.7,50.7,38.4,50.7L38.4,50.7z"/>
	</g>
</g>
</svg>